<mxfile host="app.diagrams.net" modified="2023-06-16T08:32:55.367Z" agent="Mozilla/5.0 (Macintosh; Intel Mac OS X 10_15_7) AppleWebKit/537.36 (KHTML, like Gecko) Chrome/114.0.0.0 Safari/537.36" version="21.4.0" etag="4PxYsvOorDnP1UuHcTG1" type="github">
  <diagram name="Page-1" id="mWTKedqHK5P2N5Olf7nd">
    <mxGraphModel>
      <root>
        <mxCell id="0" />
        <mxCell id="1" parent="0" />
      </root>
    </mxGraphModel>
  </diagram>
</mxfile>
